solid ASCII
  facet normal 0.000000e+00 1.000000e+00 -0.000000e+00
    outer loop
      vertex   2.622811e+01 -6.520000e+00 -6.074000e+01
      vertex   7.771893e+00 -6.520000e+00 -6.074000e+01
      vertex   2.622811e+01 -6.520000e+00 -5.874000e+01
    endloop
  endfacet
  facet normal 0.000000e+00 1.000000e+00 0.000000e+00
    outer loop
      vertex   2.622811e+01 -6.520000e+00 -5.874000e+01
      vertex   7.771893e+00 -6.520000e+00 -6.074000e+01
      vertex   7.771893e+00 -6.520000e+00 -5.874000e+01
    endloop
  endfacet
  facet normal -0.000000e+00 0.000000e+00 1.000000e+00
    outer loop
      vertex   2.622811e+01 -4.750000e+00 -5.674000e+01
      vertex   2.622811e+01 -6.520000e+00 -5.674000e+01
      vertex   3.875000e+01 -4.750000e+00 -5.674000e+01
    endloop
  endfacet
  facet normal 0.000000e+00 0.000000e+00 1.000000e+00
    outer loop
      vertex   3.875000e+01 -4.750000e+00 -5.674000e+01
      vertex   2.622811e+01 -6.520000e+00 -5.674000e+01
      vertex   4.052000e+01 -6.520000e+00 -5.674000e+01
    endloop
  endfacet
  facet normal -0.000000e+00 0.000000e+00 1.000000e+00
    outer loop
      vertex   3.875000e+01 -4.750000e+00 -5.674000e+01
      vertex   4.052000e+01 -6.520000e+00 -5.674000e+01
      vertex   3.875000e+01 5.075000e+01 -5.674000e+01
    endloop
  endfacet
  facet normal -0.000000e+00 0.000000e+00 1.000000e+00
    outer loop
      vertex   3.875000e+01 5.075000e+01 -5.674000e+01
      vertex   4.052000e+01 -6.520000e+00 -5.674000e+01
      vertex   4.052000e+01 5.252000e+01 -5.674000e+01
    endloop
  endfacet
  facet normal 0.000000e+00 -0.000000e+00 1.000000e+00
    outer loop
      vertex   3.875000e+01 5.075000e+01 -5.674000e+01
      vertex   4.052000e+01 5.252000e+01 -5.674000e+01
      vertex   -6.520000e+00 5.252000e+01 -5.674000e+01
    endloop
  endfacet
  facet normal 0.000000e+00 0.000000e+00 1.000000e+00
    outer loop
      vertex   3.875000e+01 5.075000e+01 -5.674000e+01
      vertex   -6.520000e+00 5.252000e+01 -5.674000e+01
      vertex   -4.750000e+00 5.075000e+01 -5.674000e+01
    endloop
  endfacet
  facet normal 0.000000e+00 0.000000e+00 1.000000e+00
    outer loop
      vertex   -4.750000e+00 5.075000e+01 -5.674000e+01
      vertex   -6.520000e+00 5.252000e+01 -5.674000e+01
      vertex   -6.520000e+00 -6.520000e+00 -5.674000e+01
    endloop
  endfacet
  facet normal 0.000000e+00 0.000000e+00 1.000000e+00
    outer loop
      vertex   -4.750000e+00 5.075000e+01 -5.674000e+01
      vertex   -6.520000e+00 -6.520000e+00 -5.674000e+01
      vertex   -4.750000e+00 -4.750000e+00 -5.674000e+01
    endloop
  endfacet
  facet normal 0.000000e+00 0.000000e+00 1.000000e+00
    outer loop
      vertex   -4.750000e+00 -4.750000e+00 -5.674000e+01
      vertex   -6.520000e+00 -6.520000e+00 -5.674000e+01
      vertex   7.771893e+00 -6.520000e+00 -5.674000e+01
    endloop
  endfacet
  facet normal -0.000000e+00 0.000000e+00 1.000000e+00
    outer loop
      vertex   -4.750000e+00 -4.750000e+00 -5.674000e+01
      vertex   7.771893e+00 -6.520000e+00 -5.674000e+01
      vertex   7.771893e+00 -4.750000e+00 -5.674000e+01
    endloop
  endfacet
  facet normal -6.214561e-17 -1.000000e+00 -0.000000e+00
    outer loop
      vertex   7.771893e+00 -6.520000e+00 -5.674000e+01
      vertex   -6.520000e+00 -6.520000e+00 -5.674000e+01
      vertex   7.771893e+00 -6.520000e+00 -5.874000e+01
    endloop
  endfacet
  facet normal -6.214561e-17 -1.000000e+00 0.000000e+00
    outer loop
      vertex   7.771893e+00 -6.520000e+00 -5.874000e+01
      vertex   -6.520000e+00 -6.520000e+00 -5.674000e+01
      vertex   -6.520000e+00 -6.520000e+00 -5.874000e+01
    endloop
  endfacet
  facet normal -6.214561e-17 -1.000000e+00 0.000000e+00
    outer loop
      vertex   2.622811e+01 -6.520000e+00 -5.874000e+01
      vertex   4.052000e+01 -6.520000e+00 -5.874000e+01
      vertex   2.622811e+01 -6.520000e+00 -5.674000e+01
    endloop
  endfacet
  facet normal -6.214561e-17 -1.000000e+00 0.000000e+00
    outer loop
      vertex   2.622811e+01 -6.520000e+00 -5.674000e+01
      vertex   4.052000e+01 -6.520000e+00 -5.874000e+01
      vertex   4.052000e+01 -6.520000e+00 -5.674000e+01
    endloop
  endfacet
  facet normal 7.071068e-01 7.071068e-01 -0.000000e+00
    outer loop
      vertex   4.100000e+01 5.400000e+01 -6.074000e+01
      vertex   4.100000e+01 5.400000e+01 -5.874000e+01
      vertex   4.200000e+01 5.300000e+01 -6.074000e+01
    endloop
  endfacet
  facet normal 7.071068e-01 7.071068e-01 -0.000000e+00
    outer loop
      vertex   4.200000e+01 5.300000e+01 -6.074000e+01
      vertex   4.100000e+01 5.400000e+01 -5.874000e+01
      vertex   4.200000e+01 5.300000e+01 -5.874000e+01
    endloop
  endfacet
  facet normal 0.000000e+00 0.000000e+00 1.000000e+00
    outer loop
      vertex   4.100000e+01 5.400000e+01 -5.874000e+01
      vertex   4.052000e+01 5.252000e+01 -5.874000e+01
      vertex   4.200000e+01 5.300000e+01 -5.874000e+01
    endloop
  endfacet
  facet normal 0.000000e+00 0.000000e+00 1.000000e+00
    outer loop
      vertex   4.200000e+01 5.300000e+01 -5.874000e+01
      vertex   4.052000e+01 5.252000e+01 -5.874000e+01
      vertex   4.052000e+01 -6.520000e+00 -5.874000e+01
    endloop
  endfacet
  facet normal 0.000000e+00 0.000000e+00 1.000000e+00
    outer loop
      vertex   4.200000e+01 5.300000e+01 -5.874000e+01
      vertex   4.052000e+01 -6.520000e+00 -5.874000e+01
      vertex   4.200000e+01 -8.000000e+00 -5.874000e+01
    endloop
  endfacet
  facet normal 0.000000e+00 0.000000e+00 1.000000e+00
    outer loop
      vertex   4.200000e+01 -8.000000e+00 -5.874000e+01
      vertex   4.052000e+01 -6.520000e+00 -5.874000e+01
      vertex   2.622811e+01 -6.520000e+00 -5.874000e+01
    endloop
  endfacet
  facet normal 0.000000e+00 0.000000e+00 1.000000e+00
    outer loop
      vertex   4.200000e+01 -8.000000e+00 -5.874000e+01
      vertex   2.622811e+01 -6.520000e+00 -5.874000e+01
      vertex   7.771893e+00 -6.520000e+00 -5.874000e+01
    endloop
  endfacet
  facet normal 0.000000e+00 0.000000e+00 1.000000e+00
    outer loop
      vertex   4.100000e+01 5.400000e+01 -5.874000e+01
      vertex   -7.000000e+00 5.400000e+01 -5.874000e+01
      vertex   4.052000e+01 5.252000e+01 -5.874000e+01
    endloop
  endfacet
  facet normal 0.000000e+00 0.000000e+00 1.000000e+00
    outer loop
      vertex   4.052000e+01 5.252000e+01 -5.874000e+01
      vertex   -7.000000e+00 5.400000e+01 -5.874000e+01
      vertex   -6.520000e+00 5.252000e+01 -5.874000e+01
    endloop
  endfacet
  facet normal 0.000000e+00 0.000000e+00 1.000000e+00
    outer loop
      vertex   -6.520000e+00 5.252000e+01 -5.874000e+01
      vertex   -7.000000e+00 5.400000e+01 -5.874000e+01
      vertex   -8.000000e+00 5.300000e+01 -5.874000e+01
    endloop
  endfacet
  facet normal 0.000000e+00 0.000000e+00 1.000000e+00
    outer loop
      vertex   -6.520000e+00 5.252000e+01 -5.874000e+01
      vertex   -8.000000e+00 5.300000e+01 -5.874000e+01
      vertex   -6.520000e+00 -6.520000e+00 -5.874000e+01
    endloop
  endfacet
  facet normal 0.000000e+00 0.000000e+00 1.000000e+00
    outer loop
      vertex   -6.520000e+00 -6.520000e+00 -5.874000e+01
      vertex   -8.000000e+00 5.300000e+01 -5.874000e+01
      vertex   -8.000000e+00 -8.000000e+00 -5.874000e+01
    endloop
  endfacet
  facet normal 0.000000e+00 0.000000e+00 1.000000e+00
    outer loop
      vertex   -6.520000e+00 -6.520000e+00 -5.874000e+01
      vertex   -8.000000e+00 -8.000000e+00 -5.874000e+01
      vertex   7.771893e+00 -6.520000e+00 -5.874000e+01
    endloop
  endfacet
  facet normal 0.000000e+00 0.000000e+00 1.000000e+00
    outer loop
      vertex   7.771893e+00 -6.520000e+00 -5.874000e+01
      vertex   -8.000000e+00 -8.000000e+00 -5.874000e+01
      vertex   4.200000e+01 -8.000000e+00 -5.874000e+01
    endloop
  endfacet
  facet normal 0.000000e+00 1.000000e+00 -0.000000e+00
    outer loop
      vertex   4.100000e+01 5.400000e+01 -6.074000e+01
      vertex   -7.000000e+00 5.400000e+01 -6.074000e+01
      vertex   4.100000e+01 5.400000e+01 -5.874000e+01
    endloop
  endfacet
  facet normal 0.000000e+00 1.000000e+00 0.000000e+00
    outer loop
      vertex   4.100000e+01 5.400000e+01 -5.874000e+01
      vertex   -7.000000e+00 5.400000e+01 -6.074000e+01
      vertex   -7.000000e+00 5.400000e+01 -5.874000e+01
    endloop
  endfacet
  facet normal -7.071068e-01 7.071068e-01 0.000000e+00
    outer loop
      vertex   -8.000000e+00 5.300000e+01 -6.074000e+01
      vertex   -8.000000e+00 5.300000e+01 -5.874000e+01
      vertex   -7.000000e+00 5.400000e+01 -6.074000e+01
    endloop
  endfacet
  facet normal -7.071068e-01 7.071068e-01 0.000000e+00
    outer loop
      vertex   -7.000000e+00 5.400000e+01 -6.074000e+01
      vertex   -8.000000e+00 5.300000e+01 -5.874000e+01
      vertex   -7.000000e+00 5.400000e+01 -5.874000e+01
    endloop
  endfacet
  facet normal -0.000000e+00 -1.000000e+00 -0.000000e+00
    outer loop
      vertex   2.622811e+01 -1.250000e+00 -5.874000e+01
      vertex   7.771893e+00 -1.250000e+00 -5.874000e+01
      vertex   2.622811e+01 -1.250000e+00 -6.074000e+01
    endloop
  endfacet
  facet normal 0.000000e+00 -1.000000e+00 0.000000e+00
    outer loop
      vertex   2.622811e+01 -1.250000e+00 -6.074000e+01
      vertex   7.771893e+00 -1.250000e+00 -5.874000e+01
      vertex   7.771893e+00 -1.250000e+00 -6.074000e+01
    endloop
  endfacet
  facet normal -1.000000e+00 -0.000000e+00 -0.000000e+00
    outer loop
      vertex   2.622811e+01 -1.250000e+00 -5.874000e+01
      vertex   2.622811e+01 -1.250000e+00 -6.074000e+01
      vertex   2.622811e+01 -4.750000e+00 -5.874000e+01
    endloop
  endfacet
  facet normal -1.000000e+00 0.000000e+00 -0.000000e+00
    outer loop
      vertex   2.622811e+01 -4.750000e+00 -5.874000e+01
      vertex   2.622811e+01 -1.250000e+00 -6.074000e+01
      vertex   2.622811e+01 -6.520000e+00 -6.074000e+01
    endloop
  endfacet
  facet normal -1.000000e+00 -0.000000e+00 0.000000e+00
    outer loop
      vertex   2.622811e+01 -4.750000e+00 -5.874000e+01
      vertex   2.622811e+01 -6.520000e+00 -6.074000e+01
      vertex   2.622811e+01 -6.520000e+00 -5.874000e+01
    endloop
  endfacet
  facet normal -1.000000e+00 0.000000e+00 0.000000e+00
    outer loop
      vertex   2.622811e+01 -6.520000e+00 -5.674000e+01
      vertex   2.622811e+01 -4.750000e+00 -5.674000e+01
      vertex   2.622811e+01 -6.520000e+00 -5.874000e+01
    endloop
  endfacet
  facet normal -1.000000e+00 0.000000e+00 0.000000e+00
    outer loop
      vertex   2.622811e+01 -6.520000e+00 -5.874000e+01
      vertex   2.622811e+01 -4.750000e+00 -5.674000e+01
      vertex   2.622811e+01 -4.750000e+00 -5.874000e+01
    endloop
  endfacet
  facet normal 1.000000e+00 7.612958e-16 0.000000e+00
    outer loop
      vertex   7.771893e+00 -1.250000e+00 -5.874000e+01
      vertex   7.771893e+00 -4.750000e+00 -5.874000e+01
      vertex   7.771893e+00 -1.250000e+00 -6.074000e+01
    endloop
  endfacet
  facet normal 1.000000e+00 0.000000e+00 -1.332268e-15
    outer loop
      vertex   7.771893e+00 -1.250000e+00 -6.074000e+01
      vertex   7.771893e+00 -4.750000e+00 -5.874000e+01
      vertex   7.771893e+00 -6.520000e+00 -6.074000e+01
    endloop
  endfacet
  facet normal 1.000000e+00 -1.505387e-15 0.000000e+00
    outer loop
      vertex   7.771893e+00 -6.520000e+00 -6.074000e+01
      vertex   7.771893e+00 -4.750000e+00 -5.874000e+01
      vertex   7.771893e+00 -6.520000e+00 -5.874000e+01
    endloop
  endfacet
  facet normal 1.000000e+00 -1.505387e-15 0.000000e+00
    outer loop
      vertex   7.771893e+00 -6.520000e+00 -5.874000e+01
      vertex   7.771893e+00 -4.750000e+00 -5.874000e+01
      vertex   7.771893e+00 -6.520000e+00 -5.674000e+01
    endloop
  endfacet
  facet normal 1.000000e+00 -0.000000e+00 1.332268e-15
    outer loop
      vertex   7.771893e+00 -6.520000e+00 -5.674000e+01
      vertex   7.771893e+00 -4.750000e+00 -5.874000e+01
      vertex   7.771893e+00 -4.750000e+00 -5.674000e+01
    endloop
  endfacet
  facet normal 0.000000e+00 0.000000e+00 1.000000e+00
    outer loop
      vertex   7.771893e+00 -4.750000e+00 -5.874000e+01
      vertex   7.771893e+00 -1.250000e+00 -5.874000e+01
      vertex   -4.750000e+00 -4.750000e+00 -5.874000e+01
    endloop
  endfacet
  facet normal 0.000000e+00 0.000000e+00 1.000000e+00
    outer loop
      vertex   -4.750000e+00 -4.750000e+00 -5.874000e+01
      vertex   7.771893e+00 -1.250000e+00 -5.874000e+01
      vertex   -4.750000e+00 5.075000e+01 -5.874000e+01
    endloop
  endfacet
  facet normal 0.000000e+00 0.000000e+00 1.000000e+00
    outer loop
      vertex   -4.750000e+00 5.075000e+01 -5.874000e+01
      vertex   7.771893e+00 -1.250000e+00 -5.874000e+01
      vertex   2.622811e+01 -1.250000e+00 -5.874000e+01
    endloop
  endfacet
  facet normal -0.000000e+00 0.000000e+00 1.000000e+00
    outer loop
      vertex   -4.750000e+00 5.075000e+01 -5.874000e+01
      vertex   2.622811e+01 -1.250000e+00 -5.874000e+01
      vertex   3.875000e+01 5.075000e+01 -5.874000e+01
    endloop
  endfacet
  facet normal 0.000000e+00 0.000000e+00 1.000000e+00
    outer loop
      vertex   3.875000e+01 5.075000e+01 -5.874000e+01
      vertex   2.622811e+01 -1.250000e+00 -5.874000e+01
      vertex   3.875000e+01 -4.750000e+00 -5.874000e+01
    endloop
  endfacet
  facet normal 0.000000e+00 0.000000e+00 1.000000e+00
    outer loop
      vertex   3.875000e+01 -4.750000e+00 -5.874000e+01
      vertex   2.622811e+01 -1.250000e+00 -5.874000e+01
      vertex   2.622811e+01 -4.750000e+00 -5.874000e+01
    endloop
  endfacet
  facet normal -0.000000e+00 1.000000e+00 8.881784e-16
    outer loop
      vertex   2.622811e+01 -4.750000e+00 -5.674000e+01
      vertex   3.875000e+01 -4.750000e+00 -5.674000e+01
      vertex   2.622811e+01 -4.750000e+00 -5.874000e+01
    endloop
  endfacet
  facet normal 1.418601e-16 1.000000e+00 0.000000e+00
    outer loop
      vertex   2.622811e+01 -4.750000e+00 -5.874000e+01
      vertex   3.875000e+01 -4.750000e+00 -5.674000e+01
      vertex   3.875000e+01 -4.750000e+00 -5.874000e+01
    endloop
  endfacet
  facet normal -2.837202e-16 1.000000e+00 8.881784e-16
    outer loop
      vertex   7.771893e+00 -4.750000e+00 -5.874000e+01
      vertex   -4.750000e+00 -4.750000e+00 -5.874000e+01
      vertex   7.771893e+00 -4.750000e+00 -5.674000e+01
    endloop
  endfacet
  facet normal -1.418601e-16 1.000000e+00 0.000000e+00
    outer loop
      vertex   7.771893e+00 -4.750000e+00 -5.674000e+01
      vertex   -4.750000e+00 -4.750000e+00 -5.874000e+01
      vertex   -4.750000e+00 -4.750000e+00 -5.674000e+01
    endloop
  endfacet
  facet normal -1.000000e+00 0.000000e+00 0.000000e+00
    outer loop
      vertex   3.875000e+01 5.075000e+01 -5.874000e+01
      vertex   3.875000e+01 -4.750000e+00 -5.874000e+01
      vertex   3.875000e+01 5.075000e+01 -5.674000e+01
    endloop
  endfacet
  facet normal -1.000000e+00 -0.000000e+00 0.000000e+00
    outer loop
      vertex   3.875000e+01 5.075000e+01 -5.674000e+01
      vertex   3.875000e+01 -4.750000e+00 -5.874000e+01
      vertex   3.875000e+01 -4.750000e+00 -5.674000e+01
    endloop
  endfacet
  facet normal 0.000000e+00 -1.000000e+00 0.000000e+00
    outer loop
      vertex   -4.750000e+00 5.075000e+01 -5.874000e+01
      vertex   3.875000e+01 5.075000e+01 -5.874000e+01
      vertex   -4.750000e+00 5.075000e+01 -5.674000e+01
    endloop
  endfacet
  facet normal 0.000000e+00 -1.000000e+00 0.000000e+00
    outer loop
      vertex   -4.750000e+00 5.075000e+01 -5.674000e+01
      vertex   3.875000e+01 5.075000e+01 -5.874000e+01
      vertex   3.875000e+01 5.075000e+01 -5.674000e+01
    endloop
  endfacet
  facet normal 1.000000e+00 -1.280257e-16 0.000000e+00
    outer loop
      vertex   -4.750000e+00 -4.750000e+00 -5.874000e+01
      vertex   -4.750000e+00 5.075000e+01 -5.874000e+01
      vertex   -4.750000e+00 -4.750000e+00 -5.674000e+01
    endloop
  endfacet
  facet normal 1.000000e+00 -1.280257e-16 0.000000e+00
    outer loop
      vertex   -4.750000e+00 -4.750000e+00 -5.674000e+01
      vertex   -4.750000e+00 5.075000e+01 -5.874000e+01
      vertex   -4.750000e+00 5.075000e+01 -5.674000e+01
    endloop
  endfacet
  facet normal 0.000000e+00 1.000000e+00 -0.000000e+00
    outer loop
      vertex   4.052000e+01 5.252000e+01 -5.874000e+01
      vertex   -6.520000e+00 5.252000e+01 -5.874000e+01
      vertex   4.052000e+01 5.252000e+01 -5.674000e+01
    endloop
  endfacet
  facet normal 0.000000e+00 1.000000e+00 0.000000e+00
    outer loop
      vertex   4.052000e+01 5.252000e+01 -5.674000e+01
      vertex   -6.520000e+00 5.252000e+01 -5.874000e+01
      vertex   -6.520000e+00 5.252000e+01 -5.674000e+01
    endloop
  endfacet
  facet normal 1.000000e+00 0.000000e+00 0.000000e+00
    outer loop
      vertex   4.052000e+01 -6.520000e+00 -5.874000e+01
      vertex   4.052000e+01 5.252000e+01 -5.874000e+01
      vertex   4.052000e+01 -6.520000e+00 -5.674000e+01
    endloop
  endfacet
  facet normal 1.000000e+00 -0.000000e+00 0.000000e+00
    outer loop
      vertex   4.052000e+01 -6.520000e+00 -5.674000e+01
      vertex   4.052000e+01 5.252000e+01 -5.874000e+01
      vertex   4.052000e+01 5.252000e+01 -5.674000e+01
    endloop
  endfacet
  facet normal -1.000000e+00 1.805241e-16 0.000000e+00
    outer loop
      vertex   -6.520000e+00 5.252000e+01 -5.874000e+01
      vertex   -6.520000e+00 -6.520000e+00 -5.874000e+01
      vertex   -6.520000e+00 5.252000e+01 -5.674000e+01
    endloop
  endfacet
  facet normal -1.000000e+00 1.805241e-16 0.000000e+00
    outer loop
      vertex   -6.520000e+00 5.252000e+01 -5.674000e+01
      vertex   -6.520000e+00 -6.520000e+00 -5.874000e+01
      vertex   -6.520000e+00 -6.520000e+00 -5.674000e+01
    endloop
  endfacet
  facet normal -1.000000e+00 0.000000e+00 0.000000e+00
    outer loop
      vertex   -8.000000e+00 5.300000e+01 -6.074000e+01
      vertex   -8.000000e+00 -8.000000e+00 -6.074000e+01
      vertex   -8.000000e+00 5.300000e+01 -5.874000e+01
    endloop
  endfacet
  facet normal -1.000000e+00 -0.000000e+00 0.000000e+00
    outer loop
      vertex   -8.000000e+00 5.300000e+01 -5.874000e+01
      vertex   -8.000000e+00 -8.000000e+00 -6.074000e+01
      vertex   -8.000000e+00 -8.000000e+00 -5.874000e+01
    endloop
  endfacet
  facet normal -0.000000e+00 -1.000000e+00 -0.000000e+00
    outer loop
      vertex   4.200000e+01 -8.000000e+00 -5.874000e+01
      vertex   -8.000000e+00 -8.000000e+00 -5.874000e+01
      vertex   4.200000e+01 -8.000000e+00 -6.074000e+01
    endloop
  endfacet
  facet normal 0.000000e+00 -1.000000e+00 0.000000e+00
    outer loop
      vertex   4.200000e+01 -8.000000e+00 -6.074000e+01
      vertex   -8.000000e+00 -8.000000e+00 -5.874000e+01
      vertex   -8.000000e+00 -8.000000e+00 -6.074000e+01
    endloop
  endfacet
  facet normal 1.000000e+00 0.000000e+00 0.000000e+00
    outer loop
      vertex   4.200000e+01 5.300000e+01 -5.874000e+01
      vertex   4.200000e+01 -8.000000e+00 -5.874000e+01
      vertex   4.200000e+01 5.300000e+01 -6.074000e+01
    endloop
  endfacet
  facet normal 1.000000e+00 0.000000e+00 0.000000e+00
    outer loop
      vertex   4.200000e+01 5.300000e+01 -6.074000e+01
      vertex   4.200000e+01 -8.000000e+00 -5.874000e+01
      vertex   4.200000e+01 -8.000000e+00 -6.074000e+01
    endloop
  endfacet
  facet normal 0.000000e+00 0.000000e+00 -1.000000e+00
    outer loop
      vertex   2.622811e+01 -1.250000e+00 -6.074000e+01
      vertex   4.200000e+01 -8.000000e+00 -6.074000e+01
      vertex   2.622811e+01 -6.520000e+00 -6.074000e+01
    endloop
  endfacet
  facet normal 0.000000e+00 -0.000000e+00 -1.000000e+00
    outer loop
      vertex   2.622811e+01 -6.520000e+00 -6.074000e+01
      vertex   4.200000e+01 -8.000000e+00 -6.074000e+01
      vertex   -8.000000e+00 -8.000000e+00 -6.074000e+01
    endloop
  endfacet
  facet normal -0.000000e+00 0.000000e+00 -1.000000e+00
    outer loop
      vertex   2.622811e+01 -6.520000e+00 -6.074000e+01
      vertex   -8.000000e+00 -8.000000e+00 -6.074000e+01
      vertex   7.771893e+00 -6.520000e+00 -6.074000e+01
    endloop
  endfacet
  facet normal -0.000000e+00 0.000000e+00 -1.000000e+00
    outer loop
      vertex   7.771893e+00 -6.520000e+00 -6.074000e+01
      vertex   -8.000000e+00 -8.000000e+00 -6.074000e+01
      vertex   7.771893e+00 -1.250000e+00 -6.074000e+01
    endloop
  endfacet
  facet normal -0.000000e+00 0.000000e+00 -1.000000e+00
    outer loop
      vertex   7.771893e+00 -1.250000e+00 -6.074000e+01
      vertex   -8.000000e+00 -8.000000e+00 -6.074000e+01
      vertex   -8.000000e+00 5.300000e+01 -6.074000e+01
    endloop
  endfacet
  facet normal 0.000000e+00 0.000000e+00 -1.000000e+00
    outer loop
      vertex   7.771893e+00 -1.250000e+00 -6.074000e+01
      vertex   -8.000000e+00 5.300000e+01 -6.074000e+01
      vertex   -7.000000e+00 5.400000e+01 -6.074000e+01
    endloop
  endfacet
  facet normal 0.000000e+00 0.000000e+00 -1.000000e+00
    outer loop
      vertex   7.771893e+00 -1.250000e+00 -6.074000e+01
      vertex   4.100000e+01 5.400000e+01 -6.074000e+01
      vertex   2.622811e+01 -1.250000e+00 -6.074000e+01
    endloop
  endfacet
  facet normal 0.000000e+00 0.000000e+00 -1.000000e+00
    outer loop
      vertex   2.622811e+01 -1.250000e+00 -6.074000e+01
      vertex   4.100000e+01 5.400000e+01 -6.074000e+01
      vertex   4.200000e+01 5.300000e+01 -6.074000e+01
    endloop
  endfacet
  facet normal 0.000000e+00 0.000000e+00 -1.000000e+00
    outer loop
      vertex   2.622811e+01 -1.250000e+00 -6.074000e+01
      vertex   4.200000e+01 5.300000e+01 -6.074000e+01
      vertex   4.200000e+01 -8.000000e+00 -6.074000e+01
    endloop
  endfacet
  facet normal 0.000000e+00 0.000000e+00 -1.000000e+00
    outer loop
      vertex   -7.000000e+00 5.400000e+01 -6.074000e+01
      vertex   4.100000e+01 5.400000e+01 -6.074000e+01
      vertex   7.771893e+00 -1.250000e+00 -6.074000e+01
    endloop
  endfacet
endsolid
